name C:\Users\u0101727\Documents\MyRepositories\upper-imu-dc\Results\main_tracking\Case_40\kinematics.mot
datacolumns 10
datarows 56
range 2.00000000 2.55000000
endheader 
time	clav_prot	clav_elev	scapula_abduction	scapula_elevation	scapula_upward_rot	scapula_winging	plane_elv	shoulder_elv	axial_rot	
          2.00000000	        -24.87303572	          4.19347373	          9.97008235	         -4.57563728	         52.21471753	         -5.01280232	         61.13482556	         71.01001143	        -21.61614056	
          2.01000000	        -25.07502329	          4.27803253	          9.95715512	         -4.55487446	         52.65443654	         -5.08533617	         60.93899782	         71.31429706	        -21.35751264	
          2.02000000	        -25.27131892	          4.35428262	          9.93937428	         -4.53738342	         53.07329726	         -5.15324719	         60.74568137	         71.62904447	        -21.05316177	
          2.03000000	        -25.46039589	          4.42171006	          9.91752688	         -4.52344134	         53.46893112	         -5.21620059	         60.55433917	         71.95474499	        -20.70639514	
          2.04000000	        -25.64211662	          4.48068354	          9.89171515	         -4.51292867	         53.84135916	         -5.27437887	         60.36479942	         72.29010401	        -20.32323480	
          2.05000000	        -25.81737528	          4.53250312	          9.86186777	         -4.50524122	         54.19284689	         -5.32845817	         60.17675144	         72.63219826	        -19.91328343	
          2.06000000	        -25.98757599	          4.57914137	          9.82832123	         -4.49939551	         54.52740824	         -5.37945353	         59.98921762	         72.97691107	        -19.49023191	
          2.07000000	        -26.15406754	          4.62276598	          9.79229748	         -4.49427895	         54.85003486	         -5.42847478	         59.80026775	         73.31960143	        -19.07154094	
          2.08000000	        -26.31767540	          4.66518597	          9.75610805	         -4.48896180	         55.16578790	         -5.47645722	         59.60713687	         73.65589696	        -18.67703223	
          2.09000000	        -26.47846741	          4.70735831	          9.72297300	         -4.48299206	         55.47894643	         -5.52393574	         59.40674484	         73.98243097	        -18.32643959	
          2.10000000	        -26.63582805	          4.74906800	          9.69645941	         -4.47660641	         55.79240818	         -5.57092056	         59.19647627	         74.29733385	        -18.03628624	
          2.11000000	        -26.78881698	          4.78888971	          9.67967484	         -4.47078300	         56.10748178	         -5.61691736	         58.97499679	         74.60035065	        -17.81673935	
          2.12000000	        -26.93669521	          4.82453159	          9.67443596	         -4.46705687	         56.42411493	         -5.66111160	         58.74286219	         74.89256342	        -17.66930515	
          2.13000000	        -27.07943498	          4.85356830	          9.68065708	         -4.46707322	         56.74146102	         -5.70268770	         58.50272494	         75.17583786	        -17.58620029	
          2.14000000	        -27.21801216	          4.87437184	          9.69616220	         -4.47198726	         57.05854428	         -5.74118394	         58.25904671	         75.45223126	        -17.55185349	
          2.15000000	        -27.35435009	          4.88686771	          9.71701537	         -4.48195163	         57.37474945	         -5.77674143	         58.01735936	         75.72359403	        -17.54624139	
          2.16000000	        -27.49092825	          4.89275902	          9.73830389	         -4.49593817	         57.68998404	         -5.81013794	         57.78325367	         75.99145171	        -17.54889137	
          2.17000000	        -27.63021270	          4.89511147	          9.75514872	         -4.51198321	         58.00454921	         -5.84259737	         57.56136711	         76.25708720	        -17.54207633	
          2.18000000	        -27.77413607	          4.89750389	          9.76362916	         -4.52773605	         58.31889280	         -5.87546767	         57.35463043	         76.52165867	        -17.51234309	
          2.19000000	        -27.92381524	          4.90311863	          9.76136498	         -4.54106860	         58.63344635	         -5.90990539	         57.16390558	         76.78620240	        -17.45051121	
          2.20000000	        -28.07954763	          4.91411363	          9.74769364	         -4.55051186	         58.94865486	         -5.94667669	         56.98796995	         77.05147169	        -17.35094781	
          2.21000000	        -28.24096192	          4.93145358	          9.72357648	         -4.55538487	         59.26514211	         -5.98611171	         56.82369791	         77.31771324	        -17.21101707	
          2.22000000	        -28.40715985	          4.95517391	          9.69139614	         -4.55561910	         59.58384939	         -6.02818185	         56.66633299	         77.58455763	        -17.03116355	
          2.23000000	        -28.57680200	          4.98489336	          9.65467127	         -4.55140272	         59.90602506	         -6.07263959	         56.50987364	         77.85112400	        -16.81539566	
          2.24000000	        -28.74820693	          5.02033484	          9.61760483	         -4.54281837	         60.23304483	         -6.11916493	         56.34766621	         78.11631173	        -16.57150274	
          2.25000000	        -28.91952969	          5.06166894	          9.58442947	         -4.52961115	         60.56610576	         -6.16748022	         56.17322893	         78.37918942	        -16.31047233	
          2.26000000	        -29.08901768	          5.10960389	          9.55863849	         -4.51114209	         60.90587497	         -6.21741648	         55.98119125	         78.63937088	        -16.04502468	
          2.27000000	        -29.25530542	          5.16524418	          9.54226472	         -4.48651065	         61.25221095	         -6.26893512	         55.76814303	         78.89724909	        -15.78754768	
          2.28000000	        -29.41769665	          5.22979830	          9.53536778	         -4.45478614	         61.60406379	         -6.32211867	         55.53319829	         79.15398824	        -15.54788917	
          2.29000000	        -29.57636634	          5.30423791	          9.53584676	         -4.41526965	         61.95958154	         -6.37714301	         55.27815551	         79.41127176	        -15.33150426	
          2.30000000	        -29.73241384	          5.38900369	          9.53963369	         -4.36771199	         62.31637117	         -6.43423809	         55.00722414	         79.67089641	        -15.13838422	
          2.31000000	        -29.88772621	          5.48382078	          9.54125923	         -4.31243829	         62.67183493	         -6.49363941	         54.72635253	         79.93433071	        -14.96303671	
          2.32000000	        -30.04465331	          5.58764723	          9.53471852	         -4.25036208	         63.02350438	         -6.55553014	         54.44225034	         80.20234817	        -14.79561528	
          2.33000000	        -30.20554907	          5.69874565	          9.51448922	         -4.18289956	         63.36930543	         -6.61997662	         54.16126908	         80.47481996	        -14.62408604	
          2.34000000	        -30.37228947	          5.81485125	          9.47647365	         -4.11181204	         63.70770744	         -6.68686912	         53.88838304	         80.75071023	        -14.43699507	
          2.35000000	        -30.54590054	          5.93340871	          9.41860876	         -4.03900758	         64.03772559	         -6.75588926	         53.62654207	         81.02827861	        -14.22610597	
          2.36000000	        -30.72639200	          6.05184766	          9.34098271	         -3.96633211	         64.35878024	         -6.82652144	         53.37655888	         81.30544629	        -13.98820344	
          2.37000000	        -30.91281568	          6.16784256	          9.24549534	         -3.89539045	         64.67048584	         -6.89810585	         53.13746821	         81.58021185	        -13.72571085	
          2.38000000	        -31.10350352	          6.27948616	          9.13526192	         -3.82744265	         64.97249172	         -6.96991125	         52.90712673	         81.85095890	        -13.44612513	
          2.39000000	        -31.29640991	          6.38533683	          9.01398327	         -3.76339510	         65.26447050	         -7.04120546	         52.68281985	         82.11654076	        -13.16048047	
          2.40000000	        -31.48947613	          6.48436773	          8.88542692	         -3.70385932	         65.54625777	         -7.11131503	         52.46174247	         82.37614433	        -12.88124202	
          2.41000000	        -31.68094588	          6.57589421	          8.75305515	         -3.64922026	         65.81805743	         -7.17967837	         52.24133261	         82.62904660	        -12.62017996	
          2.42000000	        -31.86959880	          6.65954794	          8.61974859	         -3.59966612	         66.08060036	         -7.24590170	         52.01951595	         82.87440531	        -12.38669709	
          2.43000000	        -32.05490304	          6.73532029	          8.48755418	         -3.55516652	         66.33518077	         -7.30982260	         51.79493378	         83.11117350	        -12.18680425	
          2.44000000	        -32.23709063	          6.80365350	          8.35744210	         -3.51541579	         66.58355367	         -7.37157414	         51.56717291	         83.33815481	        -12.02269515	
          2.45000000	        -32.41713923	          6.86552940	          8.22913746	         -3.47977513	         66.82772245	         -7.43162818	         51.33694156	         83.55416676	        -11.89278868	
          2.46000000	        -32.59662780	          6.92248798	          8.10114248	         -3.44725703	         67.06966655	         -7.49078626	         51.10609269	         83.75826213	        -11.79213979	
          2.47000000	        -32.77744708	          6.97651170	          7.97105030	         -3.41659320	         67.31107038	         -7.55008886	         50.87740593	         83.94995230	        -11.71319116	
          2.48000000	        -32.96139392	          7.02974629	          7.83616493	         -3.38640543	         67.55312460	         -7.61063662	         50.65410190	         84.12936901	        -11.64686690	
          2.49000000	        -33.14973876	          7.08408956	          7.69430964	         -3.35546181	         67.79645772	         -7.67335180	         50.43916903	         84.29730830	        -11.58392146	
          2.50000000	        -33.34288785	          7.14074514	          7.54459411	         -3.32295868	         68.04120899	         -7.73874065	         50.23468508	         84.45513970	        -11.51628761	
          2.51000000	        -33.54024054	          7.19988367	          7.38789597	         -3.28873828	         68.28720433	         -7.80672987	         50.04133417	         84.60460911	        -11.43810708	
          2.52000000	        -33.74027948	          7.26054354	          7.22691147	         -3.25335513	         68.53417938	         -7.87663360	         49.85823491	         84.74758666	        -11.34628135	
          2.53000000	        -33.94086839	          7.32082515	          7.06576481	         -3.21795488	         68.78199907	         -7.94726835	         49.68309024	         84.88580906	        -11.24058016	
          2.54000000	        -34.13969027	          7.37831819	          6.90926829	         -3.18400471	         69.03082449	         -8.01718890	         49.51261403	         85.02066262	        -11.12341369	
          2.55000000	        -34.33472767	          7.43062484	          6.76199894	         -3.15296563	         69.28117701	         -8.08498376	         49.34315221	         85.15305529	        -10.99935146	
